<svg id="Capa_1" enable-background="new 41.64 164.945 512 512" height="512" viewBox="41.64 164.945 512 512" width="512" xmlns="http://www.w3.org/2000/svg"><g><g><path d="m252.622 375.927c-8.273 0-15.006 6.732-15.006 15.006 0 8.273 6.733 15.006 15.006 15.006s15.005-6.733 15.005-15.006c0-8.274-6.732-15.006-15.005-15.006zm8.293 76.612 111.605-55.804c.101-1.92.15-3.861.15-5.802 0-66.197-53.852-120.049-120.049-120.049-66.196 0-120.049 53.852-120.049 120.049s53.853 120.048 120.049 120.048c50.919 0 94.528-31.862 111.945-76.701l-90.226 45.109c-7.433 3.711-16.437.68-20.138-6.714-3.701-7.412-.7-16.426 6.713-20.136zm-8.293-16.588c-24.82 0-45.019-20.198-45.019-45.018 0-24.821 20.199-45.019 45.019-45.019s45.018 20.198 45.018 45.019c0 24.82-20.198 45.018-45.018 45.018zm195.079-165.066c-8.272 0-15.006 6.732-15.006 15.005 0 8.274 6.733 15.007 15.006 15.007 8.274 0 15.007-6.733 15.007-15.007s-6.733-15.005-15.007-15.005zm-15.006 270.11v30.011h30.013v-30.011zm76.03-360.147h-422.171c-24.819 0-45.018 20.198-45.018 45.018v390.16c0 24.819 20.198 45.019 45.018 45.019h422.171c24.82 0 45.021-20.199 45.021-45.019v-390.16c0-24.82-20.201-45.018-45.021-45.018zm-391.158 420.171c-8.283 0-15.006-6.724-15.006-15.007s6.724-15.007 15.006-15.007c8.283 0 15.006 6.724 15.006 15.007s-6.723 15.007-15.006 15.007zm60.024 0c-8.283 0-15.006-6.724-15.006-15.007s6.724-15.007 15.006-15.007c8.283 0 15.006 6.724 15.006 15.007s-6.722 15.007-15.006 15.007zm60.025 0c-8.284 0-15.006-6.724-15.006-15.007s6.723-15.007 15.006-15.007 15.006 6.724 15.006 15.007-6.724 15.007-15.006 15.007zm255.104-15.007c0 8.283-6.724 15.007-15.008 15.007h-60.022c-8.284 0-15.007-6.724-15.007-15.007v-60.023c0-8.285 6.723-15.008 15.007-15.008h60.022c8.284 0 15.008 6.723 15.008 15.008zm-30.012-257.685v47.6c0 5.434-2.93 10.653-8.505 13.525l-53.669 26.841c-12.075 70.708-73.812 124.702-147.912 124.702-82.744 0-150.062-67.317-150.062-150.062s67.317-150.062 150.062-150.062c79.673 0 145.048 62.415 149.792 140.917l30.281-15.136v-38.325c-17.468-6.183-30.012-22.879-30.012-42.438 0-24.819 20.197-45.018 45.018-45.018s45.02 20.199 45.02 45.018c-.001 19.559-12.547 36.256-30.013 42.438z"/></g></g></svg>